PathFileType	4	(X/Y/Z)	c:/Users/goper/Files/vsCode/490R/osim_files/C10/C10_Fast_04.trc
DataRate	CameraRate	NumFrames	NumMarkers	Units                	OrigDataRate	OrigDataStartFrame	OrigNumFrames
250.00	250.00	4	36	mm	250.0	1156	3080
                Frame#	Time	LPSIS			LASIS			LTH1			LTH2			LTH3			LTH4			LLFE			LMFE			LSH1			LSH2			LSH3			LSH4			LLMAL			LMMAL			LCAL			LMTP5			LTOE			LMTP1			RPSIS			RASIS			RTH1			RTH2			RTH3			RTH4			RLFE			RMFE			RSH1			RSH2			RSH3			RSH4			RLMAL			RMMAL			RCAL			RMTP1			RTOE			RMTP5		
		X1	Y1	Z1	X2	Y2	Z2	X3	Y3	Z3	X4	Y4	Z4	X5	Y5	Z5	X6	Y6	Z6	X7	Y7	Z7	X8	Y8	Z8	X9	Y9	Z9	X10	Y10	Z10	X11	Y11	Z11	X12	Y12	Z12	X13	Y13	Z13	X14	Y14	Z14	X15	Y15	Z15	X16	Y16	Z16	X17	Y17	Z17	X18	Y18	Z18	X19	Y19	Z19	X20	Y20	Z20	X21	Y21	Z21	X22	Y22	Z22	X23	Y23	Z23	X24	Y24	Z24	X25	Y25	Z25	X26	Y26	Z26	X27	Y27	Z27	X28	Y28	Z28	X29	Y29	Z29	X30	Y30	Z30	X31	Y31	Z31	X32	Y32	Z32	X33	Y33	Z33	X34	Y34	Z34	X35	Y35	Z35	X36	Y36	Z36

1156	4.62000	-869.87488	1008.59271	268.54941	-1028.31921	986.92963	389.70200	-1033.33643	762.51459	439.35370	-1058.97388	722.85107	438.23584	-1083.20654	788.66278	421.62888	-1100.99683	745.00085	419.67905	-1178.32410	511.52158	378.84164	-1195.27393	503.36722	263.56763	-1141.55896	416.03094	385.00262	-1154.22424	371.14618	390.62482	-1202.64429	428.37982	382.46738	-1205.23975	382.66638	386.64459	-1245.01611	108.13981	366.74869	0.00000	0.00000	0.00000	-1204.85693	35.06808	315.99237	-1360.18933	85.22975	400.22583	-1409.45618	124.76343	344.83264	-1392.10413	83.58345	298.36609	-873.29187	1019.12823	186.99611	-1028.36584	989.43719	55.81996	-913.95074	742.10626	17.84631	-916.37207	697.58423	22.33528	-975.73895	738.38440	17.67391	-970.06671	694.26141	22.49864	-897.65472	475.74393	92.92651	-901.68268	472.49335	204.72766	-811.28247	396.85513	80.59203	-808.02094	353.92905	82.15934	-873.16272	385.70273	90.57474	-860.73206	344.52698	88.93240	-784.87274	89.89227	144.66457	0.00000	0.00000	0.00000	-719.85724	45.71660	178.98970	-909.53156	34.46138	231.16927	-945.50720	45.62595	193.36543	-901.81030	31.01178	125.66774
1157	4.62400	-876.01208	1007.67883	269.64929	-1034.90466	985.35278	389.82547	-1039.26831	760.55078	439.50470	-1064.92334	720.74585	437.98712	-1089.64001	786.04083	421.38077	-1107.27100	742.93768	419.66235	-1183.85583	509.51254	378.79306	-1201.39636	502.16556	263.38348	-1149.90601	414.01544	385.20453	-1163.78992	369.49738	390.62131	-1210.65015	427.90802	382.15390	-1214.42578	382.28354	386.43939	-1261.49353	108.77966	366.82666	0.00000	0.00000	0.00000	-1222.54016	34.86727	316.21423	-1377.58533	88.76216	399.38199	-1425.15247	129.73196	343.59308	-1408.31177	88.22118	297.13922	-879.27350	1018.42218	188.09184	-1034.15283	988.42041	56.08675	-917.67407	742.09814	18.30832	-919.73822	697.56470	22.55796	-979.40057	737.91992	17.56402	-973.46381	693.83997	22.23665	-899.84247	475.63986	92.80986	-904.56818	472.14078	204.65698	-812.92590	397.32562	80.93467	-809.37732	354.38916	82.48024	-874.76062	385.78989	90.51060	-862.02777	344.65329	88.90221	-785.07385	90.32367	144.80299	0.00000	0.00000	0.00000	-719.92712	46.00723	179.16933	-909.65662	34.53669	231.00359	-945.55872	45.50321	193.32825	-901.81830	30.99466	125.63270
1158	4.62800	-882.13818	1006.72357	270.68472	-1041.56726	983.69946	390.02777	-1045.50427	758.47083	439.54971	-1071.00781	718.53821	437.72058	-1096.09143	783.81982	421.65967	-1113.51160	740.66296	419.66122	-1189.34375	507.44629	378.69434	-1207.38354	500.89337	263.07529	-1158.25171	412.10861	385.56494	-1173.16150	368.04886	390.62122	-1218.63489	427.40637	381.82666	-1223.49524	381.93613	386.09668	-1277.58081	109.61211	366.89050	0.00000	0.00000	0.00000	-1240.07861	34.34790	317.34677	-1394.43481	92.42425	398.49265	-1440.42383	134.56859	342.23010	-1424.15125	92.50790	296.08871	-885.29572	1017.71686	189.10168	-1039.01416	987.32806	55.65630	-921.39233	742.16382	18.77281	-923.16522	697.58704	22.87497	-983.04834	737.47516	17.43622	-976.79633	693.44604	21.96359	-902.11780	475.54193	92.71294	-907.51068	471.78741	204.64008	-814.64258	397.83768	81.36366	-810.84784	354.84058	82.83157	-876.48090	385.78018	90.55347	-863.49377	344.76614	88.93092	-785.33582	90.82026	144.95685	0.00000	0.00000	0.00000	-719.98798	46.22805	179.38379	-909.77893	34.61440	230.86362	-945.59259	45.40284	193.31621	-901.76477	30.99087	125.62001
1159	4.63200	-888.31073	1005.70905	271.69992	-1048.26404	982.06891	390.16693	-1051.71008	756.32220	439.55655	-1076.92517	716.21997	437.32388	-1102.56067	781.44537	422.00412	-1119.70178	738.23108	419.63345	-1194.88428	505.37830	378.56323	-1213.29492	499.65024	262.77829	-1166.38464	410.83417	384.54926	-1182.74585	367.06189	390.53479	-1226.61804	426.91663	381.46265	-1231.95520	382.23044	386.71689	-1293.11743	110.63114	366.87723	0.00000	0.00000	0.00000	-1257.03674	34.36966	317.84308	-1410.78589	96.13574	397.49896	-1455.10815	139.34093	340.82324	-1439.44714	96.91217	294.86948	-891.37549	1016.90515	190.11269	-1044.62927	986.44421	55.83217	-925.06976	742.26367	19.29922	-926.59845	697.64069	23.18973	-986.70575	737.12354	17.29920	-980.21844	693.08771	21.71588	-904.44818	475.43246	92.63811	-910.52094	471.37732	204.62047	-816.50336	398.32248	81.81757	-812.47241	355.33698	83.22398	-878.29382	385.87964	90.57436	-864.96570	344.93567	88.95374	-785.53717	91.29464	145.15659	0.00000	0.00000	0.00000	-720.09741	46.47977	179.62848	-909.76129	34.63931	230.88353	-945.62988	45.30025	193.28596	-901.75250	31.00263	125.61332
